<?xml version="1.0" encoding="UTF-8"?>
<svg id="Layer_2" data-name="Layer 2" xmlns="http://www.w3.org/2000/svg" viewBox="0 0 47.79 3.43">
  <defs>
    <style>
      .cls-1 {
        stroke-width: 0px;
      }
    </style>
  </defs>
  <g id="Layer_1-2" data-name="Layer 1">
    <g>
      <g>
        <path class="cls-1" d="m2.07,1.62c-.06-.08-.19-.18-.42-.24h.18c.09.06.17.14.24.24Z"/>
        <path class="cls-1" d="m2.14,2.05h-.49c.23-.06.36-.16.42-.23.02-.03.04-.06.06-.09h.01s0,0,0,0c.02.05.04.18,0,.32Z"/>
      </g>
      <g>
        <path class="cls-1" d="m2.14,2.05h-.29c.08-.06.16-.13.22-.23.02-.03.04-.06.06-.09h.01s0,0,0,0c.02.05.04.18,0,.32Z"/>
        <path class="cls-1" d="m1.85,2.05h.29c-.02.14-.08.28-.24.38-.37.23-.8.57-.89,1,0,0-.56-.39-.2-.81.26-.32.7-.33,1.04-.57Z"/>
        <path class="cls-1" d="m47.79,1.72c0,.18-.15.33-.34.33H2.14c.04-.14.02-.27,0-.32h0s0-.01-.01-.01h0s-.04.07-.06.1c-.06.07-.19.17-.42.23-.06.02-.12.03-.19.04-.68.1-1.16-.37-1.46-.37.31,0,.78-.47,1.46-.38.07.01.13.02.19.04.23.06.36.16.42.24-.07-.1-.15-.18-.24-.24-.33-.23-.76-.25-1.02-.56-.36-.43.2-.82.2-.82.09.43.52.78.89,1.01.16.1.22.24.24.37h45.31c.19,0,.34.15.34.34Z"/>
        <path class="cls-1" d="m2.14,1.72h0s0,0-.01.01h.01Z"/>
      </g>
    </g>
  </g>
</svg>